<?xml version="1.0" encoding="UTF-8" standalone="no"?>
<svg
   xmlns:dc="http://purl.org/dc/elements/1.1/"
   xmlns:cc="http://creativecommons.org/ns#"
   xmlns:rdf="http://www.w3.org/1999/02/22-rdf-syntax-ns#"
   xmlns:svg="http://www.w3.org/2000/svg"
   xmlns="http://www.w3.org/2000/svg"
   xmlns:xlink="http://www.w3.org/1999/xlink"
   xmlns:sodipodi="http://sodipodi.sourceforge.net/DTD/sodipodi-0.dtd"
   xmlns:inkscape="http://www.inkscape.org/namespaces/inkscape"
   id="svg1133768"
   viewBox="0 0 1024 768"
   height="160px"
   width="1024px"
   version="1.1"
   sodipodi:docname="logo-grey-loading.svg"
   inkscape:version="1.0.1 (3bc2e813f5, 2020-09-07)">
  <sodipodi:namedview
     pagecolor="#ffffff"
     bordercolor="#666666"
     borderopacity="1"
     objecttolerance="10"
     gridtolerance="10"
     guidetolerance="10"
     inkscape:pageopacity="0"
     inkscape:pageshadow="2"
     inkscape:window-width="1920"
     inkscape:window-height="1017"
     id="namedview28"
     showgrid="false"
     inkscape:zoom="1.4365793"
     inkscape:cx="643.84812"
     inkscape:cy="80.497146"
     inkscape:window-x="-8"
     inkscape:window-y="-8"
     inkscape:window-maximized="1"
     inkscape:current-layer="logo-group"
     inkscape:document-rotation="0" />
  <metadata
     id="metadata1133774">
    <rdf:rdf>
      <cc:work
         rdf:about="">
        <dc:format>image/svg+xml</dc:format>
        <dc:type
           rdf:resource="http://purl.org/dc/dcmitype/StillImage" />
      </cc:work>
    </rdf:rdf>
    <rdf:RDF>
      <cc:Work
         rdf:about="">
        <dc:format>image/svg+xml</dc:format>
        <dc:type
           rdf:resource="http://purl.org/dc/dcmitype/StillImage" />
      </cc:Work>
    </rdf:RDF>
  </metadata>
  <defs
     id="defs1133772" />
  <linearGradient
     spreadMethod="pad"
     y2="30%"
     x2="-10%"
     y1="120%"
     x1="30%"
     id="3d_gradient2-logo-16b0929d-0ca9-4551-872b-a27cf511bed6">
    <stop
       id="stop1133749"
       stop-opacity="1"
       stop-color="#ffffff"
       offset="0%" />
    <stop
       id="stop1133751"
       stop-opacity="1"
       stop-color="#000000"
       offset="100%" />
  </linearGradient>
  <linearGradient
     gradientTransform="rotate(-30)"
     spreadMethod="pad"
     y2="30%"
     x2="-10%"
     y1="120%"
     x1="30%"
     id="3d_gradient3-logo-16b0929d-0ca9-4551-872b-a27cf511bed6">
    <stop
       id="stop1133754"
       stop-opacity="1"
       stop-color="#ffffff"
       offset="0%" />
    <stop
       id="stop1133756"
       stop-opacity="1"
       stop-color="#cccccc"
       offset="50%" />
    <stop
       id="stop1133758"
       stop-opacity="1"
       stop-color="#000000"
       offset="100%" />
  </linearGradient>
  <g
     id="logo-group">
    <image
       xlink:href=""
       id="container"
       x="0"
       y="0"
       width="1024"
       height="768"
       style="display: none;"
       transform="translate(0 0)"
       sodipodi:absref="C:\Users\karel\github\bricklinkWebservice\public\images\" />
    <g
       id="logo-center"
       transform="translate(0 0)">
      <image
         xlink:href=""
         id="icon_container"
         x="0"
         y="0"
         style="display: none;"
         sodipodi:absref="C:\Users\karel\github\bricklinkWebservice\public\images\" />
      <g
         id="slogan"
         style="font-style:normal;font-weight:400;font-size:32px;line-height:1;font-family:Montserrat;font-variant-ligatures:none;text-align:center;text-anchor:middle"
         transform="translate(0 0)" />
      <g
         id="title"
         style="font-style:normal;font-weight:300;font-size:72px;line-height:1;font-family:'Raleway Medium Alt1';font-variant-ligatures:none;text-align:center;text-anchor:middle"
         transform="matrix(9.1454595,0,0,9.1454595,-4151.7964,-3128.3477)">
        <path
           id="path1133777"
           style="font-style:normal;font-weight:500;font-size:72px;line-height:1;font-family:'Raleway Medium Alt1';font-variant-ligatures:none;text-align:center;text-anchor:middle"
           d="m 322.9325,0 h 6.48 v -22.896 h 22.968 v -5.4 h -29.448 z m 0,-51.12 v 16.344 h 6.48 V -45.36 h 27.288 v -5.76 z"
           stroke-width="0"
           stroke-linejoin="miter"
           stroke-miterlimit="2"
           fill="#e8e8e8"
           stroke="#b9bab9"
           transform="matrix(1.35,0,0,1.35,-183.41149,418.4088)" />
        <path
           id="path1133779"
           style="font-style:normal;font-weight:500;font-size:72px;line-height:1;font-family:'Raleway Medium Alt1';font-variant-ligatures:none;text-align:center;text-anchor:middle"
           d="m 359.79537,-51.12 15.91201,26.64 3.312,-5.688 -12.096,-20.952 z m 38.232,0 -15.624,26.64 -3.24,5.832 V 0 h 6.48 v -18.648 l 19.44,-32.472 z"
           stroke-width="0"
           stroke-linejoin="miter"
           stroke-miterlimit="2"
           fill="#e8e8e8"
           stroke="#201921"
           transform="matrix(1.35,0,0,1.35,-183.41149,418.4088)" />
        <path
           id="path1133781"
           style="font-style:normal;font-weight:500;font-size:72px;line-height:1;font-family:'Raleway Medium Alt1';font-variant-ligatures:none;text-align:center;text-anchor:middle"
           d="m 438.72875,-19.584 c 1.584,-0.36 3.096,-1.08 4.392,-2.088 1.296,-0.936 2.448,-2.088 3.384,-3.456 0.936,-1.296 1.656,-2.808 2.16,-4.464 0.504,-1.656 0.792,-3.384 0.792,-5.184 0,-2.016 -0.432,-3.96 -1.152,-5.904 -0.792,-1.944 -1.872,-3.672 -3.24,-5.256 -1.368,-1.584 -3.024,-2.808 -4.896,-3.744 -1.872,-0.936 -3.96,-1.44 -6.192,-1.44 h -21.888 V 0 h 6.48 v -18.36 h 6.48 l -3.6,-5.76 h -2.88 v -21.24 h 15.048 c 1.224,0 2.376,0.288 3.528,0.864 1.152,0.576 2.088,1.296 2.952,2.304 0.864,1.008 1.512,2.088 2.016,3.384 0.504,1.296 0.792,2.664 0.792,4.032 0,1.44 -0.216,2.736 -0.648,4.032 -0.504,1.368 -1.08,2.448 -1.8,3.456 -0.792,1.008 -1.728,1.8 -2.808,2.304 -1.08,0.576 -2.304,0.864 -3.6,0.864 h -5.688 l 3.744,5.76 11.664,18.36 h 7.344 z"
           stroke-width="0"
           stroke-linejoin="miter"
           stroke-miterlimit="2"
           fill="#e8e8e8"
           stroke="#201921"
           transform="matrix(1.35,0,0,1.35,-183.41149,418.4088)" />
        <path
           id="path1133783"
           style="font-style:normal;font-weight:500;font-size:72px;line-height:1;font-family:'Raleway Medium Alt1';font-variant-ligatures:none;text-align:center;text-anchor:middle"
           d="m 465.81875,-45.36 h 27.576 v -5.76 h -34.056 v 15.84 h 6.48 z m -6.48,39.6 V 0 h 34.704 v -5.76 z m 6.48,-17.64 h 23.976 v -5.4 h -30.456 v 16.56 h 6.48 z"
           stroke-width="0"
           stroke-linejoin="miter"
           stroke-miterlimit="2"
           fill="#e8e8e8"
           stroke="#201921"
           transform="matrix(1.35,0,0,1.35,-183.41149,418.4088)" />
        <path
           id="path1133785"
           style="font-style:normal;font-weight:500;font-size:72px;line-height:1;font-family:'Raleway Medium Alt1';font-variant-ligatures:none;text-align:center;text-anchor:middle"
           d="m 539.5805,-21.384 c -1.728,-2.304 -4.032,-3.96 -6.912,-4.824 2.304,-1.008 4.104,-2.664 5.4,-4.824 1.296,-2.088 1.944,-4.464 1.944,-7.056 0,-1.584 -0.288,-3.096 -0.864,-4.68 -0.576,-1.584 -1.368,-2.952 -2.304,-4.176 -1.008,-1.224 -2.232,-2.232 -3.672,-3.024 -1.44,-0.72 -3.096,-1.152 -4.824,-1.152 h -25.416 v 39.6 h 6.48 v -33.984 h 16.704 c 1.008,0 2.016,0.216 2.952,0.648 0.936,0.504 1.728,1.08 2.376,1.8 0.648,0.792 1.152,1.728 1.584,2.736 0.36,1.08 0.576,2.232 0.576,3.384 0,1.224 -0.216,2.304 -0.648,3.312 -0.432,1.008 -0.936,1.944 -1.656,2.664 -0.72,0.792 -1.512,1.44 -2.448,1.872 -1.008,0.432 -2.088,0.648 -3.168,0.648 h -9.792 v 5.256 h 11.808 c 1.152,0 2.16,0.288 3.168,0.72 0.936,0.504 1.728,1.152 2.448,1.944 0.72,0.864 1.224,1.8 1.656,2.88 0.432,1.08 0.648,2.16 0.648,3.312 0,1.152 -0.216,2.304 -0.648,3.312 -0.504,1.08 -1.08,2.016 -1.8,2.808 -0.792,0.792 -1.728,1.44 -2.664,1.872 -1.008,0.504 -2.16,0.72 -3.312,0.72 h -24.264 V 0 h 24.264 c 2.016,0 3.96,-0.288 5.76,-0.936 1.8,-0.576 3.384,-1.512 4.752,-2.664 1.368,-1.152 2.448,-2.52 3.24,-4.176 0.792,-1.584 1.224,-3.384 1.224,-5.4 0,-3.168 -0.864,-5.904 -2.592,-8.208 z"
           stroke-width="0"
           stroke-linejoin="miter"
           stroke-miterlimit="2"
           fill="#e8e8e8"
           stroke="#201921"
           transform="matrix(1.35,0,0,1.35,-183.41149,418.4088)" />
        <path
           id="path1133787"
           style="font-style:normal;font-weight:500;font-size:72px;line-height:1;font-family:'Raleway Medium Alt1';font-variant-ligatures:none;text-align:center;text-anchor:middle"
           d="m 577.9475,-19.584 c 1.584,-0.36 3.096,-1.08 4.392,-2.088 1.296,-0.936 2.448,-2.088 3.384,-3.456 0.936,-1.296 1.656,-2.808 2.16,-4.464 0.504,-1.656 0.792,-3.384 0.792,-5.184 0,-2.016 -0.432,-3.96 -1.152,-5.904 -0.792,-1.944 -1.872,-3.672 -3.24,-5.256 -1.368,-1.584 -3.024,-2.808 -4.896,-3.744 -1.872,-0.936 -3.96,-1.44 -6.192,-1.44 h -21.888 V 0 h 6.48 v -18.36 h 6.48 l -3.6,-5.76 h -2.88 v -21.24 h 15.048 c 1.224,0 2.376,0.288 3.528,0.864 1.152,0.576 2.088,1.296 2.952,2.304 0.864,1.008 1.512,2.088 2.016,3.384 0.504,1.296 0.792,2.664 0.792,4.032 0,1.44 -0.216,2.736 -0.648,4.032 -0.504,1.368 -1.08,2.448 -1.8,3.456 -0.792,1.008 -1.728,1.8 -2.808,2.304 -1.08,0.576 -2.304,0.864 -3.6,0.864 h -5.688 l 3.744,5.76 11.664,18.36 h 7.344 z"
           stroke-width="0"
           stroke-linejoin="miter"
           stroke-miterlimit="2"
           fill="#e8e8e8"
           stroke="#201921"
           transform="matrix(1.35,0,0,1.35,-183.41149,418.4088)" />
        <path
           id="path1133789"
           style="font-style:normal;font-weight:500;font-size:72px;line-height:1;font-family:'Raleway Medium Alt1';font-variant-ligatures:none;text-align:center;text-anchor:middle"
           d="m 598.5575,0 h 6.48 v -51.12 h -6.48 z"
           stroke-width="0"
           stroke-linejoin="miter"
           stroke-miterlimit="2"
           fill="#e8e8e8"
           stroke="#201921"
           transform="matrix(1.35,0,0,1.35,-183.41149,418.4088)" />
        <path
           id="path1133793"
           style="font-style:normal;font-weight:500;font-size:72px;line-height:1;font-family:'Raleway Medium Alt1';font-variant-ligatures:none;text-align:center;text-anchor:middle"
           d="m 672.81875,-51.048 h -6.48 v 26.784 l 6.48,-6.984 z m 12.816,22.464 20.52,-22.536 h -6.984 l -26.352,28.296 -6.48,6.912 V 0 h 6.48 v -15.624 l 8.856,-9.216 18.576,24.84 h 7.056 z"
           stroke-width="0"
           stroke-linejoin="miter"
           stroke-miterlimit="2"
           fill="#e8e8e8"
           stroke="#201921"
           transform="matrix(1.35,0,0,1.35,-183.41149,418.4088)" />
      </g>
      <image
         xlink:href=""
         id="icon"
         x="0"
         y="0"
         style="display: none;"
         sodipodi:absref="C:\Users\karel\github\bricklinkWebservice\public\images\" />
    </g>
    <g
       style="display:block"
       id="g1233"
       transform="matrix(7.3427905,0,0,8.1008818,1665.1212,-22.649014)">
      <circle
         cx="50"
         cy="50"
         fill="none"
         stroke="#e8e8e8"
         stroke-width="10"
         r="35"
         stroke-dasharray="164.934, 56.9779"
         id="circle1222">
        <animateTransform
           attributeName="transform"
           type="rotate"
           repeatCount="indefinite"
           dur="1s"
           values="0 50 50;360 50 50"
           keyTimes="0;1" />
      </circle>
    </g>
  </g>
</svg>
